<svg id="Layer_1" data-name="Layer 1" xmlns="http://www.w3.org/2000/svg" viewBox="0 0 892.78 582.74"><defs><style>.cls-1{fill:#e74832;}.cls-2{fill:#394458;}</style></defs><path class="cls-1" d="M454.15,76.18S714.93,210.81,881,67.8C881,67.8,759.32-87.94,454.15,76.18Z" transform="translate(0 0)"/><path class="cls-2" d="M161.87,411.69c10.28,14.72,11.44,31.38,10.72,48.43-.42,9.95-2.28,19.66-6.86,28.67-9,17.75-25.35,24-44,21.39s-29.81-17.77-33.58-35.85c-1.45-6.94-2.53-14-2.13-21.25.49-14.52,2.18-28.71,10.77-41.16C111.56,390.54,147.05,390.46,161.87,411.69Z" transform="translate(0 0)"/><path class="cls-2" d="M690.78,425.75c-4.54-13.18-12.35-23.53-26.6-27.66-22.53-6.53-42.47,3.11-50.78,25.09-5.81,15.4-6.15,31.33-3.51,47.42.07.4.13.8.21,1.2s.12.69.19,1,.13.67.2,1,.09.46.15.68q.2.92.42,1.83c.2.84.42,1.68.66,2.51.11.38.22.77.34,1.15.25.84.52,1.67.82,2.49.1.29.2.58.31.87.17.47.35.94.54,1.4s.38.93.58,1.39a.05.05,0,0,0,0,0c.23.55.48,1.08.73,1.62.15.3.29.6.44.89.34.69.7,1.36,1.08,2,.21.37.42.73.64,1.09a2.38,2.38,0,0,0,.18.3c.2.33.39.64.59.95l.51.76.39.56c.2.3.42.6.64.89s.29.39.44.58.45.59.69.87.69.82,1,1.22.54.59.81.88.67.69,1,1,.47.46.72.68l.79.72.49.41.45.37c.26.22.53.43.8.63s.37.29.56.42c.4.29.8.58,1.22.86.12.09.25.17.38.25.47.31,1,.61,1.45.9l.9.51q.59.33,1.2.63c.27.14.55.28.84.41l1.18.53c1,.46,2.14.87,3.27,1.24.31.11.63.2,1,.3l1.07.31,1.13.29c.91.23,1.85.43,2.81.6l1.28.21c.64.1,1.29.19,2,.26a37.86,37.86,0,0,0,4.55.24l1,0c.25,0,.49,0,.74,0l.76,0h0a.06.06,0,0,0,.06,0c.46,0,.92-.06,1.38-.11h.07l.6-.06c.57-.06,1.14-.13,1.7-.23l.75-.12c.47-.07,1-.16,1.42-.27l.93-.2c.4-.08.8-.18,1.2-.29l.61-.16,1.48-.43,1.46-.49c1-.36,2.08-.77,3.09-1.23.51-.23,1-.46,1.52-.71l.93-.47.55-.3a37.5,37.5,0,0,0,3.65-2.27c.21-.14.41-.29.61-.44.36-.27.72-.54,1.07-.82l.15-.12q.54-.44,1.08-.9c.71-.61,1.39-1.25,2.05-1.93.16-.16.31-.31.45-.47l.44-.48a32.85,32.85,0,0,0,2.9-3.68c8.36-12.33,9.73-26.24,10.94-40.27C694.38,444.43,693.9,434.81,690.78,425.75Zm0,0c-4.54-13.18-12.35-23.53-26.6-27.66-22.53-6.53-42.47,3.11-50.78,25.09-5.81,15.4-6.15,31.33-3.51,47.42.07.4.13.8.21,1.2s.12.69.19,1,.13.67.2,1,.09.46.15.68q.2.92.42,1.83c.2.84.42,1.68.66,2.51.11.38.22.77.34,1.15.25.84.52,1.67.82,2.49.1.29.2.58.31.87.17.47.35.94.54,1.4s.38.93.58,1.39a.05.05,0,0,0,0,0c.23.55.48,1.08.73,1.62.15.3.29.6.44.89.34.69.7,1.36,1.08,2,.21.37.42.73.64,1.09a2.38,2.38,0,0,0,.18.3c.2.33.39.64.59.95l.51.76.39.56c.2.3.42.6.64.89s.29.39.44.58.45.59.69.87.69.82,1,1.22.54.59.81.88.67.69,1,1,.47.46.72.68l.79.72.49.41.45.37c.26.22.53.43.8.63s.37.29.56.42c.4.29.8.58,1.22.86.12.09.25.17.38.25.47.31,1,.61,1.45.9l.9.51q.59.33,1.2.63c.27.14.55.28.84.41l1.18.53c1,.46,2.14.87,3.27,1.24.31.11.63.2,1,.3l1.07.31,1.13.29c.91.23,1.85.43,2.81.6l1.28.21c.64.1,1.29.19,2,.26a37.86,37.86,0,0,0,4.55.24l1,0c.25,0,.49,0,.74,0l.76,0h0a.06.06,0,0,0,.06,0c.46,0,.92-.06,1.38-.11h.07l.6-.06c.57-.06,1.14-.13,1.7-.23l.75-.12c.47-.07,1-.16,1.42-.27l.93-.2c.4-.08.8-.18,1.2-.29l.61-.16,1.48-.43,1.46-.49c1-.36,2.08-.77,3.09-1.23.51-.23,1-.46,1.52-.71l.93-.47.55-.3a37.5,37.5,0,0,0,3.65-2.27c.21-.14.41-.29.61-.44.36-.27.72-.54,1.07-.82l.15-.12q.54-.44,1.08-.9c.71-.61,1.39-1.25,2.05-1.93.16-.16.31-.31.45-.47l.44-.48a32.85,32.85,0,0,0,2.9-3.68c8.36-12.33,9.73-26.24,10.94-40.27C694.38,444.43,693.9,434.81,690.78,425.75Zm0,0c-4.54-13.18-12.35-23.53-26.6-27.66-22.53-6.53-42.47,3.11-50.78,25.09-5.81,15.4-6.15,31.33-3.51,47.42.07.4.13.8.21,1.2s.12.69.19,1,.13.67.2,1,.09.46.15.68q.2.92.42,1.83c.2.84.42,1.68.66,2.51.11.38.22.77.34,1.15.25.84.52,1.67.82,2.49.1.29.2.58.31.87.17.47.35.94.54,1.4s.38.93.58,1.39a.05.05,0,0,0,0,0c.23.55.48,1.08.73,1.62.15.3.29.6.44.89.34.69.7,1.36,1.08,2,.21.37.42.73.64,1.09a2.38,2.38,0,0,0,.18.3c.2.33.39.64.59.95l.51.76.39.56c.2.3.42.6.64.89s.29.39.44.58.45.59.69.87.69.82,1,1.22.54.59.81.88.67.69,1,1,.47.46.72.68l.79.72.49.41.45.37c.26.22.53.43.8.63s.37.29.56.42c.4.29.8.58,1.22.86.12.09.25.17.38.25.47.31,1,.61,1.45.9l.9.51q.59.33,1.2.63c.27.14.55.28.84.41l1.18.53c1,.46,2.14.87,3.27,1.24.31.11.63.2,1,.3l1.07.31,1.13.29c.91.23,1.85.43,2.81.6l1.28.21c.64.1,1.29.19,2,.26a37.86,37.86,0,0,0,4.55.24l1,0c.25,0,.49,0,.74,0l.76,0h0a.06.06,0,0,0,.06,0c.46,0,.92-.06,1.38-.11h.07l.6-.06c.57-.06,1.14-.13,1.7-.23l.75-.12c.47-.07,1-.16,1.42-.27l.93-.2c.4-.08.8-.18,1.2-.29l.61-.16,1.48-.43,1.46-.49c1-.36,2.08-.77,3.09-1.23.51-.23,1-.46,1.52-.71l.93-.47.55-.3a37.5,37.5,0,0,0,3.65-2.27c.21-.14.41-.29.61-.44.36-.27.72-.54,1.07-.82l.15-.12q.54-.44,1.08-.9c.71-.61,1.39-1.25,2.05-1.93.16-.16.31-.31.45-.47l.44-.48a32.85,32.85,0,0,0,2.9-3.68c8.36-12.33,9.73-26.24,10.94-40.27C694.38,444.43,693.9,434.81,690.78,425.75Zm0,0c-4.54-13.18-12.35-23.53-26.6-27.66-22.53-6.53-42.47,3.11-50.78,25.09-5.81,15.4-6.15,31.33-3.51,47.42.07.4.13.8.21,1.2s.12.69.19,1,.13.67.2,1,.09.46.15.68q.2.92.42,1.83c.2.84.42,1.68.66,2.51.11.38.22.77.34,1.15.25.84.52,1.67.82,2.49.1.29.2.58.31.87.17.47.35.94.54,1.4s.38.93.58,1.39a.05.05,0,0,0,0,0c.23.55.48,1.08.73,1.62.15.3.29.6.44.89.34.69.7,1.36,1.08,2,.21.37.42.73.64,1.09a2.38,2.38,0,0,0,.18.3c.2.33.39.64.59.95l.51.76.39.56c.2.3.42.6.64.89s.29.39.44.58.45.59.69.87.69.82,1,1.22.54.59.81.88.67.69,1,1,.47.46.72.68l.79.72.49.41.45.37c.26.22.53.43.8.63s.37.29.56.42c.4.29.8.58,1.22.86.12.09.25.17.38.25.47.31,1,.61,1.45.9l.9.51q.59.33,1.2.63c.27.14.55.28.84.41l1.18.53c1,.46,2.14.87,3.27,1.24.31.11.63.2,1,.3l1.07.31,1.13.29c.91.23,1.85.43,2.81.6l1.28.21c.64.1,1.29.19,2,.26a37.86,37.86,0,0,0,4.55.24l1,0c.25,0,.49,0,.74,0l.76,0h0a.06.06,0,0,0,.06,0c.46,0,.92-.06,1.38-.11h.07l.6-.06c.57-.06,1.14-.13,1.7-.23l.75-.12c.47-.07,1-.16,1.42-.27l.93-.2c.4-.08.8-.18,1.2-.29l.61-.16,1.48-.43,1.46-.49c1-.36,2.08-.77,3.09-1.23.51-.23,1-.46,1.52-.71l.93-.47.55-.3a37.5,37.5,0,0,0,3.65-2.27c.21-.14.41-.29.61-.44.36-.27.72-.54,1.07-.82l.15-.12q.54-.44,1.08-.9c.71-.61,1.39-1.25,2.05-1.93.16-.16.31-.31.45-.47l.44-.48a32.85,32.85,0,0,0,2.9-3.68c8.36-12.33,9.73-26.24,10.94-40.27C694.38,444.43,693.9,434.81,690.78,425.75Zm0,0c-4.54-13.18-12.35-23.53-26.6-27.66-22.53-6.53-42.47,3.11-50.78,25.09-5.81,15.4-6.15,31.33-3.51,47.42.07.4.13.8.21,1.2s.12.69.19,1,.13.67.2,1,.09.46.15.68q.2.92.42,1.83c.2.84.42,1.68.66,2.51.11.38.22.77.34,1.15.25.84.52,1.67.82,2.49.1.29.2.58.31.87.17.47.35.94.54,1.4s.38.93.58,1.39a.05.05,0,0,0,0,0c.23.55.48,1.08.73,1.62.15.3.29.6.44.89.34.69.7,1.36,1.08,2,.21.37.42.73.64,1.09a2.38,2.38,0,0,0,.18.3c.2.33.39.64.59.95l.51.76.39.56c.2.3.42.6.64.89s.29.39.44.58.45.59.69.87.69.82,1,1.22.54.59.81.88.67.69,1,1,.47.46.72.68l.79.72.49.41.45.37c.26.22.53.43.8.63s.37.29.56.42c.4.29.8.58,1.22.86.12.09.25.17.38.25.47.31,1,.61,1.45.9l.9.51q.59.33,1.2.63c.27.14.55.28.84.41l1.18.53c1,.46,2.14.87,3.27,1.24.31.11.63.2,1,.3l1.07.31,1.13.29c.91.23,1.85.43,2.81.6l1.28.21c.64.1,1.29.19,2,.26a37.86,37.86,0,0,0,4.55.24l1,0c.25,0,.49,0,.74,0l.76,0h0a.06.06,0,0,0,.06,0c.46,0,.92-.06,1.38-.11h.07l.6-.06c.57-.06,1.14-.13,1.7-.23l.75-.12c.47-.07,1-.16,1.42-.27l.93-.2c.4-.08.8-.18,1.2-.29l.61-.16,1.48-.43,1.46-.49c1-.36,2.08-.77,3.09-1.23.51-.23,1-.46,1.52-.71l.93-.47.55-.3a37.5,37.5,0,0,0,3.65-2.27c.21-.14.41-.29.61-.44.36-.27.72-.54,1.07-.82l.15-.12q.54-.44,1.08-.9c.71-.61,1.39-1.25,2.05-1.93.16-.16.31-.31.45-.47l.44-.48a32.85,32.85,0,0,0,2.9-3.68c8.36-12.33,9.73-26.24,10.94-40.27C694.38,444.43,693.9,434.81,690.78,425.75Zm0,0c-4.54-13.18-12.35-23.53-26.6-27.66-22.53-6.53-42.47,3.11-50.78,25.09-5.81,15.4-6.15,31.33-3.51,47.42.07.4.13.8.21,1.2s.12.69.19,1,.13.67.2,1,.09.46.15.68q.2.92.42,1.83c.2.84.42,1.68.66,2.51.11.38.22.77.34,1.15.25.84.52,1.67.82,2.49.1.29.2.58.31.87.17.47.35.94.54,1.4s.38.93.58,1.39a.05.05,0,0,0,0,0c.23.55.48,1.08.73,1.62.15.3.29.6.44.89.34.69.7,1.36,1.08,2,.21.37.42.73.64,1.09a2.38,2.38,0,0,0,.18.3c.2.33.39.64.59.95l.51.76.39.56c.2.3.42.6.64.89s.29.39.44.58.45.59.69.87.69.82,1,1.22.54.59.81.88.67.69,1,1,.47.46.72.68l.79.72.49.41.45.37c.26.22.53.43.8.63s.37.29.56.42c.4.29.8.58,1.22.86.12.09.25.17.38.25.47.31,1,.61,1.45.9l.9.51q.59.33,1.2.63c.27.14.55.28.84.41l1.18.53c1,.46,2.14.87,3.27,1.24.31.11.63.2,1,.3l1.07.31,1.13.29c.91.23,1.85.43,2.81.6l1.28.21c.64.1,1.29.19,2,.26a37.86,37.86,0,0,0,4.55.24l1,0c.25,0,.49,0,.74,0l.76,0h0a.06.06,0,0,0,.06,0c.46,0,.92-.06,1.38-.11h.07l.6-.06c.57-.06,1.14-.13,1.7-.23l.75-.12c.47-.07,1-.16,1.42-.27l.93-.2c.4-.08.8-.18,1.2-.29l.61-.16,1.48-.43,1.46-.49c1-.36,2.08-.77,3.09-1.23.51-.23,1-.46,1.52-.71l.93-.47.55-.3a37.5,37.5,0,0,0,3.65-2.27c.21-.14.41-.29.61-.44.36-.27.72-.54,1.07-.82l.15-.12q.54-.44,1.08-.9c.71-.61,1.39-1.25,2.05-1.93.16-.16.31-.31.45-.47l.44-.48a32.85,32.85,0,0,0,2.9-3.68c8.36-12.33,9.73-26.24,10.94-40.27C694.38,444.43,693.9,434.81,690.78,425.75ZM892.07,79S727,239.85,422,73.8.12,73.8.12,73.8Q.06,298,0,522.24q0,14.49,0,29V563c0,.42,0,.83.05,1.24a19.92,19.92,0,0,0,18.86,18.49c.28,0,.57,0,.85,0H872.63a19.75,19.75,0,0,0,19.53-16.83q.11-11.45.22-22.89C893.87,387,890.58,235.1,892.07,79ZM372.55,363.45c0-2.74.91-3.76,3.79-3.74,13.16.13,26.32.09,39.49,0,2.29,0,3.2.53,3.18,3q-.19,16,0,32c0,2.54-1,3-3.22,3-6.66-.12-13.33,0-20,0v0c-6.33,0-12.67-.12-19,0-2.86.08-4.31-.55-4.27-3.77C372.66,383.78,372.63,373.61,372.55,363.45ZM222.78,460.77c-1.39,25.62-8.35,49.16-27.82,67.57-13.71,13-30.07,19.72-48.46,22.28a83.46,83.46,0,0,1-14.7,1c-24.29.15-45.28-4.89-63.16-19.58A81.23,81.23,0,0,1,40.9,487.37C35,463,34.52,438.22,42.4,414.24,53,381.9,75.5,362.07,109.46,356.81c21.52-3.33,42.85-2.57,63.23,6.78,20.21,9.28,34.07,24.34,42.4,44.76C222,425.19,223.74,442.89,222.78,460.77ZM358.67,546.7c-12.48-.23-25-.27-37.46,0-4,.09-5.3-.78-5.26-5.08.22-25.14.05-50.29.16-75.43a68.3,68.3,0,0,0-2.2-15.54c-1.71-7.46-11.54-11.75-20-9.42C283.18,444.17,279,451.85,278,463.32c-2.23,26-.59,52.16-.87,78.24-.05,4.22-1.14,5.22-5.24,5.12-12.15-.3-24.31-.2-36.47-.1-2.93,0-4.36-.3-4.35-3.92q.22-64.93.05-129.89c0-3.21.84-4.34,4.14-4.3,12.49.15,25,.11,37.47,0,3,0,4.62.66,4.26,4.16-.33,3.09-.07,6.25-.07,10.91,7.27-9.57,15.48-15.19,25.81-17.16,16-3.06,31.63-3,45.62,7.12C356,419,359,427.28,360.86,435.84s2.2,17.6,2.16,26.54q-.19,40,0,79.93C363.07,545.81,362.2,546.77,358.67,546.7Zm54.91,0c-11.66-.3-23.33-.38-35,0-4.91.16-6.13-1.47-6.11-6.09.15-34.48.08-69,.08-103.43,0-8.33.08-16.66-.05-25,0-2.75.74-3.78,3.66-3.75q19.23.21,38.47,0c3.51-.05,4.4,1.09,4.38,4.55-.17,21.65-.09,43.3-.09,65h0c0,21.16-.17,42.31.14,63.46C419.17,546.05,417.76,546.83,413.58,546.73Zm340.18-184c0-2.37.75-3.11,3.14-3.09q20,.15,39.91,0c2.34,0,3.15.62,3.12,3.05q-.16,16,0,31.93c0,2.38-.68,3.15-3.08,3.1-6.65-.15-13.31-.05-20-.05s-13.3-.09-19.95.05c-2.34,0-3.2-.64-3.18-3.06Q753.91,378.73,753.76,362.76ZM737.81,498c-.65,1.61-1.32,3.18-2,4.71-11.65,25.28-31.62,41-59.38,46.77a115.07,115.07,0,0,1-57-2c-21.11-6.28-37.15-19.14-47.83-38.47-1.16-2.09-2.22-4.21-3.19-6.33-9.21-20.07-10.49-41.49-8.74-63.49.56-7.12,2.06-14,2.45-21.37q-12.61,17.89-25.22,35.79c-4.07,5.79-7.87,11.79-12.24,17.33-2.11,2.67-1.76,4.52-.11,7q8.4,12.38,16.78,24.78Q553.65,521,566,539.21a24.34,24.34,0,0,0,1.9,2.85,3.49,3.49,0,0,1,.94,3.66c-.63,1.75-2.3.89-3.46.89-15.49.07-31-.09-46.47.15-3.45,0-4.6-2-5.87-4.2-5.86-10.28-11.65-20.6-17.82-31.54-5.32,9.56-10.68,18.46-15.27,27.73-2.87,5.78-6.14,8.48-13.15,8.1-13.62-.75-27.31-.33-41-.19-4.21,0-4.58-1.07-2.36-4.39,8.82-13.15,17.53-26.37,26.34-39.53q7.53-11.26,15.19-22.44c3.08-4.46,2.9-7.36-.12-11.58-13-18.15-25.71-36.54-38.53-54.83-1-1.38-2.3-2.83-1.69-4.46.71-1.88,2.84-1.26,4.35-1.27,15-.12,30-.09,45-.24,2.83,0,4.42.91,5.81,3.47,5,9.13,10.23,18.09,15.59,27.46,5.57-9.3,11.1-18.08,16.12-27.15,1.64-3,3.44-3.91,6.61-3.89,14.32.1,28.65-.15,43,.1,4,.07,6.09-1.1,7.88-4.75,15.17-31.06,40.71-46,74.71-47.94,17.23-1,33.93.56,50,7.45a79.25,79.25,0,0,1,37.56,32.77c9.88,16.37,13.49,34.22,13.81,53.11C745.28,465.49,744.22,482.15,737.81,498ZM796,546.72c-12.81-.16-25.64-.21-38.46,0-3.67.07-4.74-.8-4.7-4.62.2-21.64.09-43.29.1-64.93s.11-43.29-.1-64.94c0-3.85,1.08-4.65,4.72-4.59,12.81.23,25.64.18,38.46,0,3,0,3.92.75,3.91,3.87q-.15,65.68,0,131.37C800,546.1,799,546.76,796,546.72Zm60.85-93.59c0,29.64-.06,59.27.08,88.91,0,3.59-.66,4.81-4.55,4.72-12.31-.28-24.64-.31-37,0-4.35.11-5.64-1-5.6-5.45.21-23.64.11-47.28.09-70.92q0-51.94-.11-103.88c0-8.17-.51-6.74,7-6.79,11.82-.07,23.64.14,35.46-.11,3.7-.08,4.69.83,4.67,4.61C856.79,393.87,856.87,423.5,856.87,453.13Zm-192.69-55c-22.53-6.53-42.47,3.11-50.78,25.09-5.81,15.4-6.15,31.33-3.51,47.42.07.4.13.8.21,1.2s.12.69.19,1,.13.67.2,1,.09.46.15.68q.2.92.42,1.83c.2.84.42,1.68.66,2.51.11.38.22.77.34,1.15.25.84.52,1.67.82,2.49.1.29.2.58.31.87.17.47.35.94.54,1.4s.38.93.58,1.39a.05.05,0,0,0,0,0c.23.55.48,1.08.73,1.62.15.3.29.6.44.89.34.69.7,1.36,1.08,2,.21.37.42.73.64,1.09a2.38,2.38,0,0,0,.18.3c.2.33.39.64.59.95l.51.76.39.56c.2.3.42.6.64.89s.29.39.44.58.45.59.69.87.69.82,1,1.22.54.59.81.88.67.69,1,1,.47.46.72.68l.79.72.49.41.45.37c.26.22.53.43.8.63s.37.29.56.42c.4.29.8.58,1.22.86.12.09.25.17.38.25.47.31,1,.61,1.45.9l.9.51q.59.33,1.2.63c.27.14.55.28.84.41l1.18.53c1,.46,2.14.87,3.27,1.24.31.11.63.2,1,.3l1.07.31,1.13.29c.91.23,1.85.43,2.81.6l1.28.21c.64.1,1.29.19,2,.26a37.86,37.86,0,0,0,4.55.24l1,0c.25,0,.49,0,.74,0l.76,0h0a.06.06,0,0,0,.06,0c.46,0,.92-.06,1.38-.11h.07l.6-.06c.57-.06,1.14-.13,1.7-.23l.75-.12c.47-.07,1-.16,1.42-.27l.93-.2c.4-.08.8-.18,1.2-.29l.61-.16,1.48-.43,1.46-.49c1-.36,2.08-.77,3.09-1.23.51-.23,1-.46,1.52-.71l.93-.47.55-.3a37.5,37.5,0,0,0,3.65-2.27c.21-.14.41-.29.61-.44.36-.27.72-.54,1.07-.82l.15-.12q.54-.44,1.08-.9c.71-.61,1.39-1.25,2.05-1.93.16-.16.31-.31.45-.47l.44-.48a32.85,32.85,0,0,0,2.9-3.68c8.36-12.33,9.73-26.24,10.94-40.27-.69-9.64-1.17-19.26-4.29-28.32C686.24,412.57,678.43,402.22,664.18,398.09Zm26.6,27.66c-4.54-13.18-12.35-23.53-26.6-27.66-22.53-6.53-42.47,3.11-50.78,25.09-5.81,15.4-6.15,31.33-3.51,47.42.07.4.13.8.21,1.2s.12.69.19,1,.13.67.2,1,.09.46.15.68q.2.92.42,1.83c.2.84.42,1.68.66,2.51.11.38.22.77.34,1.15.25.84.52,1.67.82,2.49.1.29.2.58.31.87.17.47.35.94.54,1.4s.38.93.58,1.39a.05.05,0,0,0,0,0c.23.55.48,1.08.73,1.62.15.3.29.6.44.89.34.69.7,1.36,1.08,2,.21.37.42.73.64,1.09a2.38,2.38,0,0,0,.18.3c.2.33.39.64.59.95l.51.76.39.56c.2.3.42.6.64.89s.29.39.44.58.45.59.69.87.69.82,1,1.22.54.59.81.88.67.69,1,1,.47.46.72.68l.79.72.49.41.45.37c.26.22.53.43.8.63s.37.29.56.42c.4.29.8.58,1.22.86.12.09.25.17.38.25.47.31,1,.61,1.45.9l.9.51q.59.33,1.2.63c.27.14.55.28.84.41l1.18.53c1,.46,2.14.87,3.27,1.24.31.11.63.2,1,.3l1.07.31,1.13.29c.91.23,1.85.43,2.81.6l1.28.21c.64.1,1.29.19,2,.26a37.86,37.86,0,0,0,4.55.24l1,0c.25,0,.49,0,.74,0l.76,0h0a.06.06,0,0,0,.06,0c.46,0,.92-.06,1.38-.11h.07l.6-.06c.57-.06,1.14-.13,1.7-.23l.75-.12c.47-.07,1-.16,1.42-.27l.93-.2c.4-.08.8-.18,1.2-.29l.61-.16,1.48-.43,1.46-.49c1-.36,2.08-.77,3.09-1.23.51-.23,1-.46,1.52-.71l.93-.47.55-.3a37.5,37.5,0,0,0,3.65-2.27c.21-.14.41-.29.61-.44.36-.27.72-.54,1.07-.82l.15-.12q.54-.44,1.08-.9c.71-.61,1.39-1.25,2.05-1.93.16-.16.31-.31.45-.47l.44-.48a32.85,32.85,0,0,0,2.9-3.68c8.36-12.33,9.73-26.24,10.94-40.27C694.38,444.43,693.9,434.81,690.78,425.75Zm0,0c-4.54-13.18-12.35-23.53-26.6-27.66-22.53-6.53-42.47,3.11-50.78,25.09-5.81,15.4-6.15,31.33-3.51,47.42.07.4.13.8.21,1.2s.12.69.19,1,.13.67.2,1,.09.46.15.68q.2.92.42,1.83c.2.84.42,1.68.66,2.51.11.38.22.77.34,1.15.25.84.52,1.67.82,2.49.1.29.2.58.31.87.17.47.35.94.54,1.4s.38.93.58,1.39a.05.05,0,0,0,0,0c.23.55.48,1.08.73,1.62.15.3.29.6.44.89.34.69.7,1.36,1.08,2,.21.37.42.73.64,1.09a2.38,2.38,0,0,0,.18.3c.2.33.39.64.59.95l.51.76.39.56c.2.3.42.6.64.89s.29.39.44.58.45.59.69.87.69.82,1,1.22.54.59.81.88.67.69,1,1,.47.46.72.68l.79.72.49.41.45.37c.26.22.53.43.8.63s.37.29.56.42c.4.29.8.58,1.22.86.12.09.25.17.38.25.47.31,1,.61,1.45.9l.9.51q.59.33,1.2.63c.27.14.55.28.84.41l1.18.53c1,.46,2.14.87,3.27,1.24.31.11.63.2,1,.3l1.07.31,1.13.29c.91.23,1.85.43,2.81.6l1.28.21c.64.1,1.29.19,2,.26a37.86,37.86,0,0,0,4.55.24l1,0c.25,0,.49,0,.74,0l.76,0h0a.06.06,0,0,0,.06,0c.46,0,.92-.06,1.38-.11h.07l.6-.06c.57-.06,1.14-.13,1.7-.23l.75-.12c.47-.07,1-.16,1.42-.27l.93-.2c.4-.08.8-.18,1.2-.29l.61-.16,1.48-.43,1.46-.49c1-.36,2.08-.77,3.09-1.23.51-.23,1-.46,1.52-.71l.93-.47.55-.3a37.5,37.5,0,0,0,3.65-2.27c.21-.14.41-.29.61-.44.36-.27.72-.54,1.07-.82l.15-.12q.54-.44,1.08-.9c.71-.61,1.39-1.25,2.05-1.93.16-.16.31-.31.45-.47l.44-.48a32.85,32.85,0,0,0,2.9-3.68c8.36-12.33,9.73-26.24,10.94-40.27C694.38,444.43,693.9,434.81,690.78,425.75Zm0,0c-4.54-13.18-12.35-23.53-26.6-27.66-22.53-6.53-42.47,3.11-50.78,25.09-5.81,15.4-6.15,31.33-3.51,47.42.07.4.13.8.21,1.2s.12.69.19,1,.13.67.2,1,.09.46.15.68q.2.92.42,1.83c.2.84.42,1.68.66,2.51.11.38.22.77.34,1.15.25.84.52,1.67.82,2.49.1.29.2.58.31.87.17.47.35.94.54,1.4s.38.93.58,1.39a.05.05,0,0,0,0,0c.23.55.48,1.08.73,1.62.15.3.29.6.44.89.34.69.7,1.36,1.08,2,.21.37.42.73.64,1.09a2.38,2.38,0,0,0,.18.3c.2.33.39.64.59.95l.51.76.39.56c.2.3.42.6.64.89s.29.39.44.58.45.59.69.87.69.82,1,1.22.54.59.81.88.67.69,1,1,.47.46.72.68l.79.72.49.41.45.37c.26.22.53.43.8.63s.37.29.56.42c.4.29.8.58,1.22.86.12.09.25.17.38.25.47.31,1,.61,1.45.9l.9.51q.59.33,1.2.63c.27.14.55.28.84.41l1.18.53c1,.46,2.14.87,3.27,1.24.31.11.63.2,1,.3l1.07.31,1.13.29c.91.23,1.85.43,2.81.6l1.28.21c.64.1,1.29.19,2,.26a37.86,37.86,0,0,0,4.55.24l1,0c.25,0,.49,0,.74,0l.76,0h0a.06.06,0,0,0,.06,0c.46,0,.92-.06,1.38-.11h.07l.6-.06c.57-.06,1.14-.13,1.7-.23l.75-.12c.47-.07,1-.16,1.42-.27l.93-.2c.4-.08.8-.18,1.2-.29l.61-.16,1.48-.43,1.46-.49c1-.36,2.08-.77,3.09-1.23.51-.23,1-.46,1.52-.71l.93-.47.55-.3a37.5,37.5,0,0,0,3.65-2.27c.21-.14.41-.29.61-.44.36-.27.72-.54,1.07-.82l.15-.12q.54-.44,1.08-.9c.71-.61,1.39-1.25,2.05-1.93.16-.16.31-.31.45-.47l.44-.48a32.85,32.85,0,0,0,2.9-3.68c8.36-12.33,9.73-26.24,10.94-40.27C694.38,444.43,693.9,434.81,690.78,425.75Zm0,0c-4.54-13.18-12.35-23.53-26.6-27.66-22.53-6.53-42.47,3.11-50.78,25.09-5.81,15.4-6.15,31.33-3.51,47.42.07.4.13.8.21,1.2s.12.69.19,1,.13.67.2,1,.09.46.15.68q.2.92.42,1.83c.2.84.42,1.68.66,2.51.11.38.22.77.34,1.15.25.84.52,1.67.82,2.49.1.29.2.58.31.87.17.47.35.94.54,1.4s.38.93.58,1.39a.05.05,0,0,0,0,0c.23.55.48,1.08.73,1.62.15.3.29.6.44.89.34.69.7,1.36,1.08,2,.21.37.42.73.64,1.09a2.38,2.38,0,0,0,.18.3c.2.33.39.64.59.95l.51.76.39.56c.2.3.42.6.64.89s.29.39.44.58.45.59.69.87.69.82,1,1.22.54.59.81.88.67.69,1,1,.47.46.72.68l.79.72.49.41.45.37c.26.22.53.43.8.63s.37.29.56.42c.4.29.8.58,1.22.86.12.09.25.17.38.25.47.31,1,.61,1.45.9l.9.51q.59.33,1.2.63c.27.14.55.28.84.41l1.18.53c1,.46,2.14.87,3.27,1.24.31.11.63.2,1,.3l1.07.31,1.13.29c.91.23,1.85.43,2.81.6l1.28.21c.64.1,1.29.19,2,.26a37.86,37.86,0,0,0,4.55.24l1,0c.25,0,.49,0,.74,0l.76,0h0a.06.06,0,0,0,.06,0c.46,0,.92-.06,1.38-.11h.07l.6-.06c.57-.06,1.14-.13,1.7-.23l.75-.12c.47-.07,1-.16,1.42-.27l.93-.2c.4-.08.8-.18,1.2-.29l.61-.16,1.48-.43,1.46-.49c1-.36,2.08-.77,3.09-1.23.51-.23,1-.46,1.52-.71l.93-.47.55-.3a37.5,37.5,0,0,0,3.65-2.27c.21-.14.41-.29.61-.44.36-.27.72-.54,1.07-.82l.15-.12q.54-.44,1.08-.9c.71-.61,1.39-1.25,2.05-1.93.16-.16.31-.31.45-.47l.44-.48a32.85,32.85,0,0,0,2.9-3.68c8.36-12.33,9.73-26.24,10.94-40.27C694.38,444.43,693.9,434.81,690.78,425.75Zm0,0c-4.54-13.18-12.35-23.53-26.6-27.66-22.53-6.53-42.47,3.11-50.78,25.09-5.81,15.4-6.15,31.33-3.51,47.42.07.4.13.8.21,1.2s.12.69.19,1,.13.67.2,1,.09.46.15.68q.2.92.42,1.83c.2.84.42,1.68.66,2.51.11.38.22.77.34,1.15.25.84.52,1.67.82,2.49.1.29.2.58.31.87.17.47.35.94.54,1.4s.38.93.58,1.39a.05.05,0,0,0,0,0c.23.55.48,1.08.73,1.62.15.3.29.6.44.89.34.69.7,1.36,1.08,2,.21.37.42.73.64,1.09a2.38,2.38,0,0,0,.18.3c.2.33.39.64.59.95l.51.76.39.56c.2.3.42.6.64.89s.29.39.44.58.45.59.69.87.69.82,1,1.22.54.59.81.88.67.69,1,1,.47.46.72.68l.79.72.49.41.45.37c.26.22.53.43.8.63s.37.29.56.42c.4.29.8.58,1.22.86.12.09.25.17.38.25.47.31,1,.61,1.45.9l.9.51q.59.33,1.2.63c.27.14.55.28.84.41l1.18.53c1,.46,2.14.87,3.27,1.24.31.11.63.2,1,.3l1.07.31,1.13.29c.91.23,1.85.43,2.81.6l1.28.21c.64.1,1.29.19,2,.26a37.86,37.86,0,0,0,4.55.24l1,0c.25,0,.49,0,.74,0l.76,0h0a.06.06,0,0,0,.06,0c.46,0,.92-.06,1.38-.11h.07l.6-.06c.57-.06,1.14-.13,1.7-.23l.75-.12c.47-.07,1-.16,1.42-.27l.93-.2c.4-.08.8-.18,1.2-.29l.61-.16,1.48-.43,1.46-.49c1-.36,2.08-.77,3.09-1.23.51-.23,1-.46,1.52-.71l.93-.47.55-.3a37.5,37.5,0,0,0,3.65-2.27c.21-.14.41-.29.61-.44.36-.27.72-.54,1.07-.82l.15-.12q.54-.44,1.08-.9c.71-.61,1.39-1.25,2.05-1.93.16-.16.31-.31.45-.47l.44-.48a32.85,32.85,0,0,0,2.9-3.68c8.36-12.33,9.73-26.24,10.94-40.27C694.38,444.43,693.9,434.81,690.78,425.75Zm0,0c-4.54-13.18-12.35-23.53-26.6-27.66-22.53-6.53-42.47,3.11-50.78,25.09-5.81,15.4-6.15,31.33-3.51,47.42.07.4.13.8.21,1.2s.12.69.19,1,.13.67.2,1,.09.46.15.68q.2.92.42,1.83c.2.84.42,1.68.66,2.51.11.38.22.77.34,1.15.25.84.52,1.67.82,2.49.1.29.2.58.31.87.17.47.35.94.54,1.4s.38.93.58,1.39a.05.05,0,0,0,0,0c.23.55.48,1.08.73,1.62.15.3.29.6.44.89.34.69.7,1.36,1.08,2,.21.37.42.73.64,1.09a2.38,2.38,0,0,0,.18.3c.2.33.39.64.59.95l.51.76.39.56c.2.3.42.6.64.89s.29.39.44.58.45.59.69.87.69.82,1,1.22.54.59.81.88.67.69,1,1,.47.46.72.68l.79.72.49.41.45.37c.26.22.53.43.8.63s.37.29.56.42c.4.29.8.58,1.22.86.12.09.25.17.38.25.47.31,1,.61,1.45.9l.9.51q.59.33,1.2.63c.27.14.55.28.84.41l1.18.53c1,.46,2.14.87,3.27,1.24.31.11.63.2,1,.3l1.07.31,1.13.29c.91.23,1.85.43,2.81.6l1.28.21c.64.1,1.29.19,2,.26a37.86,37.86,0,0,0,4.55.24l1,0c.25,0,.49,0,.74,0l.76,0h0a.06.06,0,0,0,.06,0c.46,0,.92-.06,1.38-.11h.07l.6-.06c.57-.06,1.14-.13,1.7-.23l.75-.12c.47-.07,1-.16,1.42-.27l.93-.2c.4-.08.8-.18,1.2-.29l.61-.16,1.48-.43,1.46-.49c1-.36,2.08-.77,3.09-1.23.51-.23,1-.46,1.52-.71l.93-.47.55-.3a37.5,37.5,0,0,0,3.65-2.27c.21-.14.41-.29.61-.44.36-.27.72-.54,1.07-.82l.15-.12q.54-.44,1.08-.9c.71-.61,1.39-1.25,2.05-1.93.16-.16.31-.31.45-.47l.44-.48a32.85,32.85,0,0,0,2.9-3.68c8.36-12.33,9.73-26.24,10.94-40.27C694.38,444.43,693.9,434.81,690.78,425.75Z" transform="translate(0 0)"/><path class="cls-2" d="M695.07,454.07c-1.21,14-2.58,27.94-10.94,40.27a32.85,32.85,0,0,1-2.9,3.68l-.44.48c-.14.16-.29.31-.45.47-.66.68-1.34,1.32-2.05,1.93q-.54.47-1.08.9l-.15.12c-.35.28-.71.55-1.07.82-.2.15-.4.3-.61.44a37.5,37.5,0,0,1-3.65,2.27l-.55.3-.93.47c-.5.25-1,.48-1.52.71-1,.46-2.05.87-3.09,1.23l-1.46.49-1.48.43-.61.16c-.4.11-.8.21-1.2.29l-.93.2c-.47.11-1,.2-1.42.27l-.75.12c-.56.1-1.13.17-1.7.23l-.6.06h-.07c-.46.05-.92.08-1.38.11,0,0,0,0-.06,0h0l-.76,0c-.25,0-.49,0-.74,0l-1,0a37.86,37.86,0,0,1-4.55-.24c-.66-.07-1.31-.16-2-.26l-1.28-.21c-1-.17-1.9-.37-2.81-.6l-1.13-.29-1.07-.31c-.32-.1-.64-.19-1-.3-1.13-.37-2.22-.78-3.27-1.24l-1.18-.53c-.29-.13-.57-.27-.84-.41s-.81-.41-1.2-.63l-.9-.51c-.49-.29-1-.59-1.45-.9-.13-.08-.26-.16-.38-.25-.42-.28-.82-.57-1.22-.86-.19-.13-.37-.27-.56-.42s-.54-.41-.8-.63l-.45-.37-.49-.41-.79-.72c-.25-.22-.48-.45-.72-.68s-.68-.67-1-1-.55-.58-.81-.88-.7-.8-1-1.22-.47-.57-.69-.87-.3-.38-.44-.58-.44-.59-.64-.89l-.39-.56-.51-.76c-.2-.31-.39-.62-.59-.95a2.38,2.38,0,0,1-.18-.3c-.22-.36-.43-.72-.64-1.09-.38-.67-.74-1.34-1.08-2-.15-.29-.29-.59-.44-.89-.25-.54-.5-1.07-.73-1.62a.05.05,0,0,1,0,0c-.2-.46-.4-.92-.58-1.39s-.37-.93-.54-1.4c-.11-.29-.21-.58-.31-.87-.3-.82-.57-1.65-.82-2.49-.12-.38-.23-.77-.34-1.15-.24-.83-.46-1.67-.66-2.51q-.22-.91-.42-1.83c-.06-.22-.1-.46-.15-.68s-.14-.66-.2-1-.13-.69-.19-1-.14-.8-.21-1.2c-2.64-16.09-2.3-32,3.51-47.42,8.31-22,28.25-31.62,50.78-25.09,14.25,4.13,22.06,14.48,26.6,27.66C693.9,434.81,694.38,444.43,695.07,454.07Z" transform="translate(0 0)"/><path class="cls-2" d="M172.59,460.12c-.42,9.95-2.28,19.66-6.86,28.67-9,17.75-25.35,24-44,21.39s-29.81-17.77-33.58-35.85c-1.45-6.94-2.53-14-2.13-21.25.49-14.52,2.18-28.71,10.77-41.16,14.75-21.38,50.24-21.46,65.06-.23C172.15,426.41,173.31,443.07,172.59,460.12Z" transform="translate(0 0)"/></svg>